<mxfile host="app.diagrams.net" modified="2021-11-07T15:01:04.509Z" agent="5.0 (Windows NT 10.0; Win64; x64) AppleWebKit/537.36 (KHTML, like Gecko) Chrome/94.0.4606.81 Safari/537.36" etag="_M_1Xt_sf_xEiq_-0RdC" version="15.4.1" type="github">
  <diagram id="fbxqA9sn_l3k0qxRrgK-" name="Page-1">
    <mxGraphModel dx="1307" dy="784" grid="1" gridSize="10" guides="1" tooltips="1" connect="1" arrows="1" fold="1" page="1" pageScale="1" pageWidth="850" pageHeight="1100" math="0" shadow="0">
      <root>
        <mxCell id="0" />
        <mxCell id="1" parent="0" />
        <mxCell id="lYB94IjmDIahqyFkCUCy-1" style="edgeStyle=orthogonalEdgeStyle;rounded=0;orthogonalLoop=1;jettySize=auto;html=1;fontSize=34;" edge="1" parent="1" source="lYB94IjmDIahqyFkCUCy-2" target="lYB94IjmDIahqyFkCUCy-13">
          <mxGeometry relative="1" as="geometry">
            <Array as="points">
              <mxPoint x="130" y="290" />
              <mxPoint x="130" y="290" />
            </Array>
          </mxGeometry>
        </mxCell>
        <mxCell id="lYB94IjmDIahqyFkCUCy-2" value="preptdm.f" style="swimlane;html=1;fontStyle=1;align=center;verticalAlign=top;childLayout=stackLayout;horizontal=1;startSize=26;horizontalStack=0;resizeParent=1;resizeLast=0;collapsible=1;marginBottom=0;swimlaneFillColor=#ffffff;rounded=0;shadow=0;comic=0;labelBackgroundColor=none;strokeWidth=1;fillColor=#f8cecc;fontFamily=Verdana;fontSize=12;strokeColor=#b85450;" vertex="1" parent="1">
          <mxGeometry x="60" y="40" width="160" height="240" as="geometry">
            <mxRectangle x="60" y="40" width="100" height="26" as="alternateBounds" />
          </mxGeometry>
        </mxCell>
        <mxCell id="lYB94IjmDIahqyFkCUCy-3" value="&lt;b&gt;input&lt;/b&gt;: tdm_data_huppa" style="text;html=1;strokeColor=#82b366;fillColor=#d5e8d4;align=left;verticalAlign=top;spacingLeft=4;spacingRight=4;whiteSpace=wrap;overflow=hidden;rotatable=0;points=[[0,0.5],[1,0.5]];portConstraint=eastwest;" vertex="1" parent="lYB94IjmDIahqyFkCUCy-2">
          <mxGeometry y="26" width="160" height="26" as="geometry" />
        </mxCell>
        <mxCell id="lYB94IjmDIahqyFkCUCy-4" value="&lt;b&gt;input&lt;/b&gt;: pedigree_huppa" style="text;html=1;strokeColor=#82b366;fillColor=#d5e8d4;align=left;verticalAlign=top;spacingLeft=4;spacingRight=4;whiteSpace=wrap;overflow=hidden;rotatable=0;points=[[0,0.5],[1,0.5]];portConstraint=eastwest;" vertex="1" parent="lYB94IjmDIahqyFkCUCy-2">
          <mxGeometry y="52" width="160" height="26" as="geometry" />
        </mxCell>
        <mxCell id="lYB94IjmDIahqyFkCUCy-5" value="" style="line;html=1;strokeWidth=1;fillColor=none;align=left;verticalAlign=middle;spacingTop=-1;spacingLeft=3;spacingRight=3;rotatable=0;labelPosition=right;points=[];portConstraint=eastwest;" vertex="1" parent="lYB94IjmDIahqyFkCUCy-2">
          <mxGeometry y="78" width="160" height="8" as="geometry" />
        </mxCell>
        <mxCell id="lYB94IjmDIahqyFkCUCy-6" value="&lt;b&gt;output&lt;/b&gt;: tdm1.dat" style="text;html=1;align=left;verticalAlign=top;spacingLeft=4;spacingRight=4;whiteSpace=wrap;overflow=hidden;rotatable=0;points=[[0,0.5],[1,0.5]];portConstraint=eastwest;fillColor=#dae8fc;strokeColor=#6c8ebf;" vertex="1" parent="lYB94IjmDIahqyFkCUCy-2">
          <mxGeometry y="86" width="160" height="26" as="geometry" />
        </mxCell>
        <mxCell id="lYB94IjmDIahqyFkCUCy-7" value="&lt;b&gt;output&lt;/b&gt;: tdm2.dat" style="text;html=1;strokeColor=#6c8ebf;fillColor=#dae8fc;align=left;verticalAlign=top;spacingLeft=4;spacingRight=4;whiteSpace=wrap;overflow=hidden;rotatable=0;points=[[0,0.5],[1,0.5]];portConstraint=eastwest;" vertex="1" parent="lYB94IjmDIahqyFkCUCy-2">
          <mxGeometry y="112" width="160" height="26" as="geometry" />
        </mxCell>
        <mxCell id="lYB94IjmDIahqyFkCUCy-8" value="&lt;b&gt;output&lt;/b&gt;: tdm3.dat" style="text;html=1;strokeColor=#6c8ebf;fillColor=#dae8fc;align=left;verticalAlign=top;spacingLeft=4;spacingRight=4;whiteSpace=wrap;overflow=hidden;rotatable=0;points=[[0,0.5],[1,0.5]];portConstraint=eastwest;" vertex="1" parent="lYB94IjmDIahqyFkCUCy-2">
          <mxGeometry y="138" width="160" height="26" as="geometry" />
        </mxCell>
        <mxCell id="lYB94IjmDIahqyFkCUCy-9" value="&lt;b&gt;output&lt;/b&gt;: dmuped.txt" style="text;html=1;strokeColor=#BD7000;fillColor=#f0a30a;align=left;verticalAlign=top;spacingLeft=4;spacingRight=4;whiteSpace=wrap;overflow=hidden;rotatable=0;points=[[0,0.5],[1,0.5]];portConstraint=eastwest;fontColor=#000000;" vertex="1" parent="lYB94IjmDIahqyFkCUCy-2">
          <mxGeometry y="164" width="160" height="26" as="geometry" />
        </mxCell>
        <mxCell id="lYB94IjmDIahqyFkCUCy-10" value="&lt;b&gt;output&lt;/b&gt;: radnrkodi" style="text;html=1;strokeColor=#d6b656;fillColor=#fff2cc;align=left;verticalAlign=top;spacingLeft=4;spacingRight=4;whiteSpace=wrap;overflow=hidden;rotatable=0;points=[[0,0.5],[1,0.5]];portConstraint=eastwest;" vertex="1" parent="lYB94IjmDIahqyFkCUCy-2">
          <mxGeometry y="190" width="160" height="26" as="geometry" />
        </mxCell>
        <mxCell id="lYB94IjmDIahqyFkCUCy-11" value="&lt;b&gt;output&lt;/b&gt;: uppl.txt" style="text;html=1;strokeColor=none;fillColor=none;align=left;verticalAlign=top;spacingLeft=4;spacingRight=4;whiteSpace=wrap;overflow=hidden;rotatable=0;points=[[0,0.5],[1,0.5]];portConstraint=eastwest;" vertex="1" parent="lYB94IjmDIahqyFkCUCy-2">
          <mxGeometry y="216" width="160" height="24" as="geometry" />
        </mxCell>
        <mxCell id="lYB94IjmDIahqyFkCUCy-12" style="edgeStyle=orthogonalEdgeStyle;rounded=0;orthogonalLoop=1;jettySize=auto;html=1;fontSize=34;" edge="1" parent="1" target="lYB94IjmDIahqyFkCUCy-21">
          <mxGeometry relative="1" as="geometry">
            <mxPoint x="110" y="510" as="sourcePoint" />
            <Array as="points">
              <mxPoint x="110" y="510" />
            </Array>
          </mxGeometry>
        </mxCell>
        <mxCell id="lYB94IjmDIahqyFkCUCy-13" value="acc1.f" style="swimlane;html=1;fontStyle=1;align=center;verticalAlign=top;childLayout=stackLayout;horizontal=1;startSize=26;horizontalStack=0;resizeParent=1;resizeLast=0;collapsible=1;marginBottom=0;swimlaneFillColor=#ffffff;rounded=0;shadow=0;comic=0;labelBackgroundColor=none;strokeWidth=1;fillColor=#f8cecc;fontFamily=Verdana;fontSize=9;strokeColor=#b85450;" vertex="1" parent="1">
          <mxGeometry x="90" y="320" width="100" height="190" as="geometry">
            <mxRectangle x="60" y="40" width="100" height="26" as="alternateBounds" />
          </mxGeometry>
        </mxCell>
        <mxCell id="lYB94IjmDIahqyFkCUCy-14" value="&lt;b style=&quot;font-size: 9px;&quot;&gt;input&lt;/b&gt;: radnrkodi" style="text;html=1;strokeColor=#d6b656;fillColor=#fff2cc;align=left;verticalAlign=top;spacingLeft=4;spacingRight=4;whiteSpace=wrap;overflow=hidden;rotatable=0;points=[[0,0.5],[1,0.5]];portConstraint=eastwest;fontSize=9;" vertex="1" parent="lYB94IjmDIahqyFkCUCy-13">
          <mxGeometry y="26" width="100" height="26" as="geometry" />
        </mxCell>
        <mxCell id="lYB94IjmDIahqyFkCUCy-15" value="&lt;b style=&quot;font-size: 9px;&quot;&gt;input&lt;/b&gt;: dmuped.txt" style="text;html=1;strokeColor=#BD7000;fillColor=#f0a30a;align=left;verticalAlign=top;spacingLeft=4;spacingRight=4;whiteSpace=wrap;overflow=hidden;rotatable=0;points=[[0,0.5],[1,0.5]];portConstraint=eastwest;fontColor=#000000;fontSize=9;" vertex="1" parent="lYB94IjmDIahqyFkCUCy-13">
          <mxGeometry y="52" width="100" height="26" as="geometry" />
        </mxCell>
        <mxCell id="lYB94IjmDIahqyFkCUCy-16" value="&lt;b style=&quot;font-size: 9px;&quot;&gt;input&lt;/b&gt;: uppl.txt" style="text;html=1;strokeColor=none;fillColor=none;align=left;verticalAlign=top;spacingLeft=4;spacingRight=4;whiteSpace=wrap;overflow=hidden;rotatable=0;points=[[0,0.5],[1,0.5]];portConstraint=eastwest;fontSize=9;" vertex="1" parent="lYB94IjmDIahqyFkCUCy-13">
          <mxGeometry y="78" width="100" height="22" as="geometry" />
        </mxCell>
        <mxCell id="lYB94IjmDIahqyFkCUCy-17" value="" style="line;html=1;strokeWidth=1;fillColor=none;align=left;verticalAlign=middle;spacingTop=-1;spacingLeft=3;spacingRight=3;rotatable=0;labelPosition=right;points=[];portConstraint=eastwest;" vertex="1" parent="lYB94IjmDIahqyFkCUCy-13">
          <mxGeometry y="100" width="100" height="8" as="geometry" />
        </mxCell>
        <mxCell id="lYB94IjmDIahqyFkCUCy-18" value="&lt;b style=&quot;font-size: 9px;&quot;&gt;output&lt;/b&gt;: accuraci.dat&lt;br style=&quot;font-size: 9px;&quot;&gt;" style="text;html=1;align=left;verticalAlign=top;spacingLeft=4;spacingRight=4;whiteSpace=wrap;overflow=hidden;rotatable=0;points=[[0,0.5],[1,0.5]];portConstraint=eastwest;fillColor=#f5f5f5;strokeColor=#666666;fontColor=#333333;fontSize=9;" vertex="1" parent="lYB94IjmDIahqyFkCUCy-13">
          <mxGeometry y="108" width="100" height="26" as="geometry" />
        </mxCell>
        <mxCell id="lYB94IjmDIahqyFkCUCy-19" value="&lt;b style=&quot;font-size: 9px;&quot;&gt;output&lt;/b&gt;: accuracs.dat" style="text;html=1;align=left;verticalAlign=top;spacingLeft=4;spacingRight=4;whiteSpace=wrap;overflow=hidden;rotatable=0;points=[[0,0.5],[1,0.5]];portConstraint=eastwest;fillColor=#f5f5f5;strokeColor=#666666;fontColor=#333333;fontSize=9;" vertex="1" parent="lYB94IjmDIahqyFkCUCy-13">
          <mxGeometry y="134" width="100" height="26" as="geometry" />
        </mxCell>
        <mxCell id="lYB94IjmDIahqyFkCUCy-20" value="&lt;b style=&quot;font-size: 9px;&quot;&gt;output&lt;/b&gt;: accuracd.dat" style="text;html=1;align=left;verticalAlign=top;spacingLeft=4;spacingRight=4;whiteSpace=wrap;overflow=hidden;rotatable=0;points=[[0,0.5],[1,0.5]];portConstraint=eastwest;fillColor=#f5f5f5;strokeColor=#666666;fontColor=#333333;fontSize=9;" vertex="1" parent="lYB94IjmDIahqyFkCUCy-13">
          <mxGeometry y="160" width="100" height="26" as="geometry" />
        </mxCell>
        <mxCell id="lYB94IjmDIahqyFkCUCy-21" value="acc2.f" style="swimlane;html=1;fontStyle=1;align=center;verticalAlign=top;childLayout=stackLayout;horizontal=1;startSize=26;horizontalStack=0;resizeParent=1;resizeLast=0;collapsible=1;marginBottom=0;swimlaneFillColor=#ffffff;rounded=0;shadow=0;comic=0;labelBackgroundColor=none;strokeWidth=1;fillColor=#f8cecc;fontFamily=Verdana;fontSize=9;strokeColor=#b85450;" vertex="1" parent="1">
          <mxGeometry x="25" y="530" width="95" height="140" as="geometry">
            <mxRectangle x="60" y="40" width="100" height="26" as="alternateBounds" />
          </mxGeometry>
        </mxCell>
        <mxCell id="lYB94IjmDIahqyFkCUCy-22" value="&lt;b style=&quot;font-size: 9px;&quot;&gt;input&lt;/b&gt;: accuraci.dat" style="text;html=1;align=left;verticalAlign=top;spacingLeft=4;spacingRight=4;whiteSpace=wrap;overflow=hidden;rotatable=0;points=[[0,0.5],[1,0.5]];portConstraint=eastwest;fillColor=#f5f5f5;strokeColor=#666666;fontColor=#333333;fontSize=9;" vertex="1" parent="lYB94IjmDIahqyFkCUCy-21">
          <mxGeometry y="26" width="95" height="26" as="geometry" />
        </mxCell>
        <mxCell id="lYB94IjmDIahqyFkCUCy-23" value="&lt;b style=&quot;font-size: 9px;&quot;&gt;input&lt;/b&gt;: accuracs.dat" style="text;html=1;align=left;verticalAlign=top;spacingLeft=4;spacingRight=4;whiteSpace=wrap;overflow=hidden;rotatable=0;points=[[0,0.5],[1,0.5]];portConstraint=eastwest;fillColor=#f5f5f5;strokeColor=#666666;fontColor=#333333;fontSize=9;" vertex="1" parent="lYB94IjmDIahqyFkCUCy-21">
          <mxGeometry y="52" width="95" height="26" as="geometry" />
        </mxCell>
        <mxCell id="lYB94IjmDIahqyFkCUCy-24" value="&lt;b style=&quot;font-size: 9px;&quot;&gt;input&lt;/b&gt;: accuracd.dat" style="text;html=1;align=left;verticalAlign=top;spacingLeft=4;spacingRight=4;whiteSpace=wrap;overflow=hidden;rotatable=0;points=[[0,0.5],[1,0.5]];portConstraint=eastwest;fillColor=#f5f5f5;strokeColor=#666666;fontColor=#333333;fontSize=9;" vertex="1" parent="lYB94IjmDIahqyFkCUCy-21">
          <mxGeometry y="78" width="95" height="26" as="geometry" />
        </mxCell>
        <mxCell id="lYB94IjmDIahqyFkCUCy-25" value="" style="line;html=1;strokeWidth=1;fillColor=none;align=left;verticalAlign=middle;spacingTop=-1;spacingLeft=3;spacingRight=3;rotatable=0;labelPosition=right;points=[];portConstraint=eastwest;" vertex="1" parent="lYB94IjmDIahqyFkCUCy-21">
          <mxGeometry y="104" width="95" height="8" as="geometry" />
        </mxCell>
        <mxCell id="lYB94IjmDIahqyFkCUCy-26" value="&lt;b style=&quot;font-size: 9px;&quot;&gt;output&lt;/b&gt;: accuracy.sol&lt;br style=&quot;font-size: 9px;&quot;&gt;" style="text;html=1;align=left;verticalAlign=top;spacingLeft=4;spacingRight=4;whiteSpace=wrap;overflow=hidden;rotatable=0;points=[[0,0.5],[1,0.5]];portConstraint=eastwest;fillColor=#dae8fc;strokeColor=#6c8ebf;fontSize=9;" vertex="1" parent="lYB94IjmDIahqyFkCUCy-21">
          <mxGeometry y="112" width="95" height="26" as="geometry" />
        </mxCell>
        <mxCell id="lYB94IjmDIahqyFkCUCy-27" value="acc2_fr.f" style="swimlane;html=1;fontStyle=1;align=center;verticalAlign=top;childLayout=stackLayout;horizontal=1;startSize=26;horizontalStack=0;resizeParent=1;resizeLast=0;collapsible=1;marginBottom=0;swimlaneFillColor=#ffffff;rounded=0;shadow=0;comic=0;labelBackgroundColor=none;strokeWidth=1;fillColor=#f8cecc;fontFamily=Verdana;fontSize=9;strokeColor=#b85450;" vertex="1" parent="1">
          <mxGeometry x="140" y="530" width="95" height="140" as="geometry">
            <mxRectangle x="60" y="40" width="100" height="26" as="alternateBounds" />
          </mxGeometry>
        </mxCell>
        <mxCell id="lYB94IjmDIahqyFkCUCy-28" value="&lt;b style=&quot;font-size: 9px;&quot;&gt;input&lt;/b&gt;: accuraci.dat" style="text;html=1;align=left;verticalAlign=top;spacingLeft=4;spacingRight=4;whiteSpace=wrap;overflow=hidden;rotatable=0;points=[[0,0.5],[1,0.5]];portConstraint=eastwest;fillColor=#f5f5f5;strokeColor=#666666;fontColor=#333333;fontSize=9;" vertex="1" parent="lYB94IjmDIahqyFkCUCy-27">
          <mxGeometry y="26" width="95" height="26" as="geometry" />
        </mxCell>
        <mxCell id="lYB94IjmDIahqyFkCUCy-29" value="&lt;b style=&quot;font-size: 9px;&quot;&gt;input&lt;/b&gt;: accuracs.dat" style="text;html=1;align=left;verticalAlign=top;spacingLeft=4;spacingRight=4;whiteSpace=wrap;overflow=hidden;rotatable=0;points=[[0,0.5],[1,0.5]];portConstraint=eastwest;fillColor=#f5f5f5;strokeColor=#666666;fontColor=#333333;fontSize=9;" vertex="1" parent="lYB94IjmDIahqyFkCUCy-27">
          <mxGeometry y="52" width="95" height="26" as="geometry" />
        </mxCell>
        <mxCell id="lYB94IjmDIahqyFkCUCy-30" value="&lt;b style=&quot;font-size: 9px;&quot;&gt;input&lt;/b&gt;: accuracd.dat" style="text;html=1;align=left;verticalAlign=top;spacingLeft=4;spacingRight=4;whiteSpace=wrap;overflow=hidden;rotatable=0;points=[[0,0.5],[1,0.5]];portConstraint=eastwest;fillColor=#f5f5f5;strokeColor=#666666;fontColor=#333333;fontSize=9;" vertex="1" parent="lYB94IjmDIahqyFkCUCy-27">
          <mxGeometry y="78" width="95" height="26" as="geometry" />
        </mxCell>
        <mxCell id="lYB94IjmDIahqyFkCUCy-31" value="" style="line;html=1;strokeWidth=1;fillColor=none;align=left;verticalAlign=middle;spacingTop=-1;spacingLeft=3;spacingRight=3;rotatable=0;labelPosition=right;points=[];portConstraint=eastwest;" vertex="1" parent="lYB94IjmDIahqyFkCUCy-27">
          <mxGeometry y="104" width="95" height="8" as="geometry" />
        </mxCell>
        <mxCell id="lYB94IjmDIahqyFkCUCy-32" value="&lt;b style=&quot;font-size: 9px;&quot;&gt;output&lt;/b&gt;: accuracy.sol&lt;br style=&quot;font-size: 9px;&quot;&gt;" style="text;html=1;align=left;verticalAlign=top;spacingLeft=4;spacingRight=4;whiteSpace=wrap;overflow=hidden;rotatable=0;points=[[0,0.5],[1,0.5]];portConstraint=eastwest;fillColor=#dae8fc;strokeColor=#6c8ebf;fontSize=9;" vertex="1" parent="lYB94IjmDIahqyFkCUCy-27">
          <mxGeometry y="112" width="95" height="26" as="geometry" />
        </mxCell>
        <mxCell id="lYB94IjmDIahqyFkCUCy-33" style="edgeStyle=orthogonalEdgeStyle;rounded=0;orthogonalLoop=1;jettySize=auto;html=1;fontSize=34;" edge="1" parent="1" target="lYB94IjmDIahqyFkCUCy-27">
          <mxGeometry relative="1" as="geometry">
            <mxPoint x="187" y="510" as="sourcePoint" />
            <mxPoint x="210" y="530" as="targetPoint" />
            <Array as="points" />
          </mxGeometry>
        </mxCell>
        <mxCell id="lYB94IjmDIahqyFkCUCy-34" value="DMU" style="swimlane;html=1;fontStyle=1;align=center;verticalAlign=top;childLayout=stackLayout;horizontal=1;startSize=26;horizontalStack=0;resizeParent=1;resizeLast=0;collapsible=1;marginBottom=0;swimlaneFillColor=#ffffff;rounded=0;shadow=0;comic=0;labelBackgroundColor=none;strokeWidth=1;fillColor=#f8cecc;fontFamily=Verdana;fontSize=12;strokeColor=#b85450;" vertex="1" parent="1">
          <mxGeometry x="570" y="430" width="180" height="234" as="geometry">
            <mxRectangle x="60" y="40" width="100" height="26" as="alternateBounds" />
          </mxGeometry>
        </mxCell>
        <mxCell id="lYB94IjmDIahqyFkCUCy-35" value="&lt;b&gt;input&lt;/b&gt;: dmuped.txt" style="text;html=1;strokeColor=#BD7000;fillColor=#f0a30a;align=left;verticalAlign=top;spacingLeft=4;spacingRight=4;whiteSpace=wrap;overflow=hidden;rotatable=0;points=[[0,0.5],[1,0.5]];portConstraint=eastwest;fontColor=#000000;" vertex="1" parent="lYB94IjmDIahqyFkCUCy-34">
          <mxGeometry y="26" width="180" height="26" as="geometry" />
        </mxCell>
        <mxCell id="lYB94IjmDIahqyFkCUCy-36" value="&lt;b&gt;input&lt;/b&gt;: tdm1.dat" style="text;html=1;align=left;verticalAlign=top;spacingLeft=4;spacingRight=4;whiteSpace=wrap;overflow=hidden;rotatable=0;points=[[0,0.5],[1,0.5]];portConstraint=eastwest;fillColor=#dae8fc;strokeColor=#6c8ebf;" vertex="1" parent="lYB94IjmDIahqyFkCUCy-34">
          <mxGeometry y="52" width="180" height="26" as="geometry" />
        </mxCell>
        <mxCell id="lYB94IjmDIahqyFkCUCy-37" value="&lt;b&gt;input&lt;/b&gt;: tdm2.dat" style="text;html=1;strokeColor=#6c8ebf;fillColor=#dae8fc;align=left;verticalAlign=top;spacingLeft=4;spacingRight=4;whiteSpace=wrap;overflow=hidden;rotatable=0;points=[[0,0.5],[1,0.5]];portConstraint=eastwest;" vertex="1" parent="lYB94IjmDIahqyFkCUCy-34">
          <mxGeometry y="78" width="180" height="26" as="geometry" />
        </mxCell>
        <mxCell id="lYB94IjmDIahqyFkCUCy-38" value="&lt;b&gt;input&lt;/b&gt;: tdm3.dat" style="text;html=1;strokeColor=#6c8ebf;fillColor=#dae8fc;align=left;verticalAlign=top;spacingLeft=4;spacingRight=4;whiteSpace=wrap;overflow=hidden;rotatable=0;points=[[0,0.5],[1,0.5]];portConstraint=eastwest;" vertex="1" parent="lYB94IjmDIahqyFkCUCy-34">
          <mxGeometry y="104" width="180" height="26" as="geometry" />
        </mxCell>
        <mxCell id="lYB94IjmDIahqyFkCUCy-39" value="&lt;b&gt;input&lt;/b&gt;: dmu_fertility.txt" style="text;html=1;strokeColor=#6c8ebf;fillColor=#dae8fc;align=left;verticalAlign=top;spacingLeft=4;spacingRight=4;whiteSpace=wrap;overflow=hidden;rotatable=0;points=[[0,0.5],[1,0.5]];portConstraint=eastwest;" vertex="1" parent="lYB94IjmDIahqyFkCUCy-34">
          <mxGeometry y="130" width="180" height="26" as="geometry" />
        </mxCell>
        <mxCell id="lYB94IjmDIahqyFkCUCy-40" value="&lt;b&gt;input&lt;/b&gt;: dmu_conformation.txt" style="text;html=1;align=left;verticalAlign=top;spacingLeft=4;spacingRight=4;whiteSpace=wrap;overflow=hidden;rotatable=0;points=[[0,0.5],[1,0.5]];portConstraint=eastwest;fillColor=#dae8fc;strokeColor=#6c8ebf;" vertex="1" parent="lYB94IjmDIahqyFkCUCy-34">
          <mxGeometry y="156" width="180" height="26" as="geometry" />
        </mxCell>
        <mxCell id="lYB94IjmDIahqyFkCUCy-41" value="&lt;b&gt;input&lt;/b&gt;: dmu_rankorder.txt" style="text;html=1;align=left;verticalAlign=top;spacingLeft=4;spacingRight=4;whiteSpace=wrap;overflow=hidden;rotatable=0;points=[[0,0.5],[1,0.5]];portConstraint=eastwest;fillColor=#dae8fc;strokeColor=#6c8ebf;" vertex="1" parent="lYB94IjmDIahqyFkCUCy-34">
          <mxGeometry y="182" width="180" height="26" as="geometry" />
        </mxCell>
        <mxCell id="lYB94IjmDIahqyFkCUCy-42" value="&lt;b&gt;output&lt;/b&gt;: SOL x9" style="text;html=1;align=left;verticalAlign=top;spacingLeft=4;spacingRight=4;whiteSpace=wrap;overflow=hidden;rotatable=0;points=[[0,0.5],[1,0.5]];portConstraint=eastwest;fillColor=#ffff88;strokeColor=#36393d;" vertex="1" parent="lYB94IjmDIahqyFkCUCy-34">
          <mxGeometry y="208" width="180" height="26" as="geometry" />
        </mxCell>
      </root>
    </mxGraphModel>
  </diagram>
</mxfile>
